<svg enable-background="new 0 0 251.15 158.68" viewBox="0 0 251.15 158.68" xmlns="http://www.w3.org/2000/svg"><path d="m242.646 158.68h-234.142c-4.677 0-8.504-3.827-8.504-8.504v-141.672c0-4.677 3.827-8.504 8.504-8.504h234.142c4.677 0 8.504 3.827 8.504 8.504v141.672c0 4.677-3.827 8.504-8.504 8.504z" fill="#007dc3"/><g fill="#fff"><path d="m33.246 56.163-4.314-10.653-4.314 10.652h8.628zm95.498-4.155c-.987.436-2.067.619-3.142.533h-7.723v-5.965h7.829c1.018-.071 2.038.093 2.983.479.872.445 1.396 1.366 1.332 2.344.058 1.032-.453 2.012-1.332 2.557m54.966 4.207-4.421-10.652-4.314 10.652zm-102.369 11.398h-6.498v-20.719l-9.161 20.719h-5.326l-9.268-20.772v20.772h-13.102l-2.45-5.912h-13.156l-2.45 5.912h-6.657l11.344-26.631h9.427l10.652 25.086v-24.926h10.333l8.309 18.002 7.616-18.002h10.652zm25.885 0h-21.305v-26.631h21.305v5.326h-14.807v4.794h14.434v5.326h-14.434v5.326h14.807zm29.88-19.334c.122 3.102-1.677 5.96-4.527 7.19 1.232.446 2.318 1.219 3.142 2.237.882 1.453 1.257 3.158 1.065 4.847v5.326h-6.338v-3.355c.313-1.839-.047-3.73-1.012-5.326-.905-.959-2.344-1.118-4.634-1.118h-6.871v9.64h-6.338v-26.632h14.54c2.625-.257 5.27.184 7.67 1.278 2.15 1.135 3.425 3.434 3.249 5.859m10.12 19.334h-6.498v-26.63h6.498zm74.939 0h-8.948l-12.037-19.867v19.867h-12.889l-2.45-5.912h-13.156l-2.344 5.912h-7.457c-6.117.862-11.774-3.398-12.636-9.515-.165-1.174-.143-2.367.066-3.534-.296-3.762.932-7.485 3.409-10.333 2.658-2.301 6.14-3.417 9.64-3.089h6.125v5.646h-5.965c-1.788-.207-3.577.377-4.9 1.598-1.316 1.719-1.96 3.859-1.811 6.019-.262 2.294.367 4.601 1.758 6.445 1.216 1.019 2.786 1.517 4.367 1.385h2.823l8.948-20.825h9.481l10.652 25.033v-25.034h9.64l11.238 18.215v-18.428h6.498zm-209.158 5.327h10.652l2.45-5.912h5.326l2.45 5.912h21.305v-4.527l1.917 4.527h11.025l1.864-4.581v4.581h52.942v-9.747h1.012c.692 0 .905 0 .905 1.278v8.362h27.376v-2.237c3.138 1.567 6.614 2.336 10.12 2.237h11.824l2.45-5.912h5.326l2.397 5.912h22.159v-5.539l3.355 5.592h17.736v-36.963h-17.204v4.367l-2.45-4.367h-18.215v4.367l-2.237-4.367h-24.394c-3.673-.196-7.337.537-10.652 2.13v-2.13h-16.618v2.13c-2.045-1.546-4.579-2.302-7.137-2.13h-61.623l-4.154 9.534-4.208-9.534h-19.334v4.367l-2.184-4.367h-16.511l-7.67 17.523z"/><path d="m238.25 92.327h-11.611c-.881-.104-1.773.064-2.557.479-.641.42-1.007 1.152-.959 1.917-.005.885.551 1.676 1.385 1.971.797.224 1.622.332 2.45.32h3.462c2.581-.237 5.155.526 7.19 2.13.219.21.415.442.586.692zm0 17.47c-2.133 2.496-5.365 3.773-8.628 3.409h-12.25v-5.752h12.197c.902.116 1.815-.113 2.557-.639.506-.444.798-1.084.799-1.758.021-.678-.274-1.328-.799-1.758-.645-.427-1.412-.632-2.184-.586-5.965 0-13.369 0-13.369-8.202-.048-4.353 3.441-7.921 7.795-7.97.422-.005.843.024 1.26.087h12.623v-5.326h-11.984c-2.811-.143-5.594.622-7.936 2.184v-2.184h-17.097c-2.695-.144-5.36.625-7.563 2.184v-2.184h-30.945v2.184c-2.591-1.485-5.536-2.24-8.522-2.184h-20.452v2.184c-2.605-1.586-5.642-2.312-8.682-2.077h-23.116l-5.326 5.646-4.9-5.646h-34.035v36.964h33.502l5.326-5.752 5.326 5.752h20.666v-8.682h2.024c2.915.234 5.847-.11 8.628-1.012v9.96h17.044v-9.96h.852c1.065 0 1.172 0 1.172 1.065v8.575h51.664c3.054.104 6.066-.733 8.628-2.397v2.397h16.405c3.193.111 6.373-.471 9.321-1.704v-6.818zm-25.299-10.652c1.33 1.445 2.021 3.365 1.917 5.326 0 5.699-3.569 8.362-9.907 8.362h-12.41v-5.379h12.41c.919.109 1.845-.118 2.61-.639.476-.461.745-1.095.746-1.758.006-.675-.287-1.318-.799-1.758-.665-.427-1.448-.633-2.237-.586-5.912 0-13.315 0-13.315-8.202 0-3.835 2.397-7.883 9.054-7.883h12.676v5.646h-11.718c-.806-.078-1.617.07-2.344.426-.66.404-1.032 1.148-.959 1.917-.022.89.54 1.69 1.385 1.971.796.228 1.622.336 2.45.32h3.462c2.58-.226 5.15.535 7.19 2.13m-57.148-1.651c-.981.457-2.066.641-3.142.533h-7.883v-5.752h7.776c1.036-.094 2.079.071 3.036.479.881.463 1.404 1.404 1.332 2.397.058 1.032-.453 2.012-1.332 2.557m3.835 3.301c1.215.449 2.283 1.223 3.089 2.237.89 1.45 1.265 3.157 1.065 4.847v5.326h-6.338v-3.302c.308-1.839-.051-3.728-1.012-5.326-.905-.959-2.29-1.172-4.634-1.172h-6.818v9.694h-6.338v-26.631h14.594c2.606-.23 5.228.21 7.616 1.278 2.14 1.145 3.411 3.437 3.249 5.859.094 3.04-1.68 5.829-4.474 7.031m8.043-14.061h21.305v5.326h-15.073v4.794h14.487v5.326h-14.487v5.326h15.073v5.326h-21.305zm-42.609 12.25h-8.362v-6.764h8.362c2.29 0 3.888.905 3.888 3.249s-1.545 3.515-3.941 3.515m-14.541 11.877-9.694-10.652 9.694-10.652zm-25.086-3.142h-15.659v-5.326h13.901v-5.326h-13.901v-4.794h15.978l6.871 7.723zm50.332-12.304c0 7.35-5.326 8.895-11.025 8.895h-7.989v8.895h-12.303l-7.776-8.735-8.096 8.788h-25.087v-26.631h25.459l7.829 8.682 8.043-8.682h20.293c5.06 0 10.652 1.385 10.652 8.735"/></g></svg>