<svg enable-background="new 0 0 251.15 158.68" viewBox="0 0 251.15 158.68" xmlns="http://www.w3.org/2000/svg" xmlns:xlink="http://www.w3.org/1999/xlink"><clipPath id="a"><path d="m242.646 158.68h-234.142c-4.677 0-8.504-3.827-8.504-8.504v-141.672c0-4.677 3.827-8.504 8.504-8.504h234.142c4.677 0 8.504 3.827 8.504 8.504v141.672c0 4.677-3.827 8.504-8.504 8.504z"/></clipPath><clipPath id="b"><path d="m-144.102 0h538.09v158.68h-538.09z"/></clipPath><linearGradient id="c" gradientUnits="userSpaceOnUse" x1="157.36565614" x2="157.36565614" y1="229.66953322" y2="-22.42836248"><stop offset="0" stop-color="#006db7"/><stop offset=".3" stop-color="#0071ba"/><stop offset=".4064" stop-color="#1a85c6"/><stop offset=".5822" stop-color="#40a0d7"/><stop offset=".7454" stop-color="#5bb4e4"/><stop offset=".8897" stop-color="#6bc1eb"/><stop offset="1" stop-color="#71c5ee"/></linearGradient><clipPath id="d"><path d="m-144.102 0h538.084v158.68h-538.084z"/></clipPath><radialGradient id="e" cx="290.32180174" cy="226.76312776" gradientUnits="userSpaceOnUse" r="251.43633396"><stop offset=".9" stop-color="#034693"/><stop offset="1" stop-color="#0071bb"/></radialGradient><linearGradient id="f"><stop offset="0" stop-color="#007f49"/><stop offset=".2883" stop-color="#209248"/><stop offset=".7632" stop-color="#50af47"/><stop offset="1" stop-color="#62ba46"/></linearGradient><linearGradient id="g" gradientUnits="userSpaceOnUse" x1="151.7862875" x2="194.061875" xlink:href="#f" y1="85.9273875" y2="85.9273875"/><linearGradient id="h" gradientUnits="userSpaceOnUse" x1="151.7856125" x2="194.062325" xlink:href="#f" y1="79.339725" y2="79.339725"/><linearGradient id="i" gradientUnits="userSpaceOnUse" x1="151.78595" x2="194.059175" xlink:href="#f" y1="72.1690875" y2="72.1690875"/><linearGradient id="j" gradientUnits="userSpaceOnUse" x1="57.1429625" x2="100.0722875" y1="79.339725" y2="79.339725"><stop offset="0" stop-color="#337"/><stop offset=".0714" stop-color="#2f397d"/><stop offset=".6913" stop-color="#0d66ad"/><stop offset="1" stop-color="#0077bf"/></linearGradient><linearGradient id="k" gradientUnits="userSpaceOnUse" x1="104.2390625" x2="145.9324625" y1="79.339725" y2="79.339725"><stop offset="0" stop-color="#743237"/><stop offset=".4006" stop-color="#aa263e"/><stop offset=".8011" stop-color="#da1c44"/><stop offset="1" stop-color="#ec1846"/></linearGradient><g clip-path="url(#a)"><path d="m0 0h251.15v158.68h-251.15z" fill="#034693"/><path clip-path="url(#b)" d="m283.038-22.668v251.344h-251.344c0-138.813 105.632-251.344 251.344-251.344z" fill="url(#c)"/><path clip-path="url(#d)" d="m38.294 226.135c0-138.812 112.535-251.344 251.341-251.344v251.344z" fill="url(#e)"/></g><path d="m202.5 114.669c0 13.216-10.715 23.932-23.932 23.932h-129.918v-94.59c0-13.217 10.715-23.932 23.934-23.932h129.916z" fill="#fff"/><path d="m160.142 90.435h9.895c.311 0 .899-.049 1.18-.111 1.9-.411 3.481-2.098 3.481-4.394 0-2.298-1.582-3.989-3.481-4.399-.28-.061-.869-.111-1.18-.111h-9.895z" fill="url(#g)"/><path d="m168.88 28.056c-9.441 0-17.095 7.654-17.095 17.093v17.755h24.189c.561 0 1.247.039 1.674.061 5.474.275 9.511 3.087 9.511 7.967 0 3.837-2.759 7.114-7.781 7.852v.193c5.548.385 9.795 3.437 9.795 8.248 0 5.203-4.662 8.549-10.876 8.549h-26.512v34.848h25.073c9.441 0 17.094-7.654 17.094-17.094v-85.472z" fill="url(#h)"/><path d="m173.526 72.17c0-2.258-1.582-3.772-3.442-4.087-.174-.03-.647-.075-.973-.075h-8.969v8.323h8.969c.326 0 .8-.047.973-.076 1.861-.316 3.442-1.828 3.442-4.085z" fill="url(#i)"/><path d="m74.292 28.056c-9.442 0-17.095 7.654-17.095 17.093v42.216c4.794 2.323 9.747 3.836 14.788 3.836 5.91 0 9.157-3.607 9.157-8.463v-19.832h14.702v19.833c0 7.757-4.762 13.979-21.102 13.979-9.834 0-17.546-2.121-17.546-2.121v36.026h25.074c9.441 0 17.095-7.654 17.095-17.094v-85.473z" fill="url(#j)"/><path d="m121.586 28.056c-9.441 0-17.094 7.654-17.094 17.093v22.38c4.331-3.715 11.821-6.037 23.99-5.489 6.514.29 13.422 2.037 13.422 2.037v7.238c-3.457-1.752-7.603-3.375-12.945-3.78-9.235-.698-14.793 3.816-14.793 11.805 0 7.987 5.558 12.5 14.793 11.799 5.342-.401 9.543-2.067 12.945-3.775v7.234s-6.908 1.746-13.422 2.042c-12.169.547-19.659-1.774-23.99-5.489v39.471h25.072c9.44 0 17.094-7.654 17.094-17.094v-85.472z" fill="url(#k)"/></svg>