<svg enable-background="new 0 0 251.15 158.68" viewBox="0 0 251.15 158.68" xmlns="http://www.w3.org/2000/svg"><path d="m242.646 158.68h-234.142c-4.677 0-8.504-3.827-8.504-8.504v-141.672c0-4.677 3.827-8.504 8.504-8.504h234.142c4.677 0 8.504 3.827 8.504 8.504v141.672c0 4.677-3.827 8.504-8.504 8.504z" fill="#010101"/><path d="m70.489 145.45v-8.972c0-3.368-2.027-5.604-5.485-5.634-1.818-.03-3.696.536-5.008 2.534-.984-1.58-2.534-2.534-4.71-2.534-1.52 0-3.13.417-4.292 2.087v-1.729h-2.862v14.248h2.892v-8.168c0-2.474 1.49-3.786 3.607-3.786 2.057 0 3.219 1.341 3.219 3.756v8.197h2.892v-8.168c0-2.474 1.55-3.786 3.607-3.786 2.116 0 3.249 1.341 3.249 3.756v8.197h2.891zm46.441-14.249h-5.187v-4.322h-2.891v4.322h-3.011v2.593h3.011v6.737c0 3.309 1.163 5.276 4.829 5.276 1.341 0 2.892-.417 3.875-1.103l-.895-2.534c-.924.537-1.937.805-2.742.805-1.55 0-2.176-.954-2.176-2.385v-6.796h5.187zm26.44-.357c-1.788 0-3.07.835-3.875 2.087v-1.729h-2.832v14.248h2.862v-8.018c0-2.355 1.133-3.875 3.16-3.875.626 0 1.282.089 1.938.358l.954-2.683c-.687-.269-1.581-.388-2.207-.388zm-39.973 1.49c-1.49-.984-3.547-1.49-5.813-1.49-3.607 0-5.813 1.699-5.813 4.531 0 2.325 1.61 3.726 4.799 4.173l1.461.209c1.699.238 2.623.835 2.623 1.639 0 1.103-1.252 1.818-3.368 1.818-2.235 0-3.696-.686-4.739-1.49l-1.461 2.236c2.116 1.55 4.65 1.848 6.17 1.848 4.113 0 6.379-1.908 6.379-4.62 0-2.504-1.729-3.786-4.859-4.233l-1.461-.209c-1.341-.179-2.534-.596-2.534-1.55 0-1.043 1.133-1.759 2.832-1.759 1.818 0 3.577.686 4.441 1.222zm43.222 5.992c0 4.322 2.891 7.482 7.482 7.482 2.146 0 3.577-.477 5.127-1.699l-1.49-2.236c-1.163.835-2.385 1.282-3.726 1.282-2.474-.03-4.412-1.967-4.412-4.829s1.938-4.799 4.412-4.829c1.342 0 2.564.447 3.726 1.282l1.49-2.236c-1.55-1.222-2.981-1.699-5.127-1.699-4.59 0-7.482 3.159-7.482 7.482zm-20.031-7.482c-4.173 0-7.035 3.011-7.035 7.452 0 4.531 2.981 7.512 7.244 7.512 2.146 0 4.113-.537 5.842-1.997l-1.52-2.116c-1.192.954-2.712 1.49-4.143 1.49-1.997 0-4.024-1.133-4.382-3.696h10.642c.03-.387.06-.775.06-1.192-.031-4.443-2.714-7.453-6.708-7.453zm-.06 2.653c2.116 0 3.547 1.371 3.756 3.607h-7.691c.269-2.087 1.64-3.607 3.935-3.607zm-38.572 4.829v-7.124h-2.862v1.729c-.984-1.282-2.593-2.087-4.62-2.087-3.994 0-7.035 3.13-7.035 7.482s3.041 7.482 7.035 7.482c2.027 0 3.636-.805 4.62-2.086v1.729h2.862zm-11.536 0c0-2.683 1.699-4.829 4.441-4.829 2.623 0 4.352 2.057 4.352 4.829s-1.729 4.829-4.352 4.829c-2.741-.001-4.441-2.147-4.441-4.829zm109.994-7.482c-1.788 0-3.07.835-3.875 2.087v-1.729h-2.832v14.248h2.862v-8.018c0-2.355 1.133-3.875 3.16-3.875.626 0 1.282.089 1.938.358l.954-2.683c-.687-.269-1.582-.388-2.207-.388zm22.959 12.539c.199 0 .385.037.56.111.174.074.327.175.458.303.13.128.233.278.308.451.075.172.113.355.113.549s-.038.377-.113.548-.178.321-.308.449c-.131.128-.283.23-.458.305s-.361.113-.56.113c-.203 0-.393-.038-.57-.113s-.33-.177-.459-.305c-.13-.128-.232-.278-.307-.449s-.112-.354-.112-.548.037-.377.112-.549.177-.322.307-.451c.129-.129.282-.23.459-.303.177-.074.367-.111.57-.111zm0 2.517c.153 0 .295-.029.427-.087s.247-.137.346-.236c.1-.099.177-.216.234-.35s.085-.277.085-.43-.028-.296-.085-.43-.134-.251-.234-.35c-.099-.1-.215-.177-.346-.234-.132-.057-.274-.085-.427-.085-.155 0-.3.028-.435.085s-.253.134-.352.234c-.099.099-.178.216-.234.35-.057.134-.085.277-.085.43s.028.296.085.43c.056.134.135.251.234.35s.217.178.352.236.28.087.435.087zm.083-1.764c.169 0 .299.037.39.113.091.075.137.177.137.307 0 .109-.036.198-.109.269-.073.07-.176.114-.31.13l.43.496h-.336l-.399-.492h-.128v.492h-.281v-1.314h.606zm-.326.246v.35h.322c.074 0 .133-.014.177-.043s.066-.073.066-.133c0-.058-.022-.101-.066-.13s-.103-.043-.177-.043h-.322zm-33.686-6.056v-7.124h-2.862v1.729c-.984-1.282-2.593-2.087-4.62-2.087-3.994 0-7.035 3.13-7.035 7.482s3.04 7.482 7.035 7.482c2.027 0 3.637-.805 4.62-2.086v1.729h2.862zm-11.536 0c0-2.683 1.699-4.829 4.441-4.829 2.623 0 4.352 2.057 4.352 4.829s-1.729 4.829-4.352 4.829c-2.742-.001-4.441-2.147-4.441-4.829zm40.301 0v-12.847h-2.862v7.452c-.984-1.282-2.593-2.087-4.621-2.087-3.994 0-7.035 3.13-7.035 7.482s3.041 7.482 7.035 7.482c2.027 0 3.637-.805 4.621-2.086v1.729h2.862zm-11.536 0c0-2.683 1.699-4.829 4.442-4.829 2.623 0 4.352 2.057 4.352 4.829s-1.729 4.829-4.352 4.829c-2.743-.001-4.442-2.147-4.442-4.829z" fill="#fff"/><path d="m100.068 22.773h51.589v84.266h-51.589z" fill="#f16122"/><path d="m105.394 64.906c0-17.095 8.004-32.32 20.469-42.133-9.116-7.176-20.618-11.458-33.119-11.458-29.595 0-53.587 23.994-53.587 53.591s23.992 53.591 53.587 53.591c12.501 0 24.003-4.281 33.119-11.458-12.465-9.812-20.469-25.037-20.469-42.133z" fill="#e91d25"/><g fill="#f79e1d"><path d="m207.456 98.114v-1.724h.696v-.352h-1.772v.352h.696v1.725h.38zm3.439 0v-2.08h-.543l-.625 1.43-.625-1.43h-.543v2.08h.384v-1.569l.586 1.353h.397l.586-1.356v1.572z"/><path d="m212.568 64.906c0 29.597-23.992 53.591-53.587 53.591-12.501 0-24.003-4.281-33.119-11.458 12.465-9.813 20.468-25.038 20.468-42.133s-8.004-32.32-20.468-42.133c9.116-7.176 20.617-11.458 33.119-11.458 29.596 0 53.587 23.994 53.587 53.591z"/></g></svg>