<svg enable-background="new 0 0 251.15 158.68" viewBox="0 0 251.15 158.68" xmlns="http://www.w3.org/2000/svg" xmlns:xlink="http://www.w3.org/1999/xlink"><clipPath id="a"><path d="m242.646 158.68h-234.142c-4.677 0-8.504-3.827-8.504-8.504v-141.672c0-4.677 3.827-8.504 8.504-8.504h234.142c4.677 0 8.504 3.827 8.504 8.504v141.672c0 4.677-3.827 8.504-8.504 8.504z"/></clipPath><g clip-path="url(#a)"><path d="m0 .741h251.15v159.538h-251.15z" fill="#fff"/><path d="m4.183 134.357h242.781v21.766h-242.781z" fill="#f7b600"/><path d="m4.183 4.926h242.781v21.767h-242.781z" fill="#1a1f71"/></g><path d="m101.363 49.673-25.079 59.828h-16.36l-12.342-47.747c-.748-2.936-1.4-4.015-3.676-5.256-3.722-2.022-9.867-3.913-15.269-5.089l.365-1.736h26.338c3.355 0 6.373 2.232 7.14 6.096l6.52 34.623 16.102-40.719zm64.104 40.296c.068-15.789-21.826-16.664-21.681-23.719.048-2.144 2.092-4.427 6.563-5.011 2.216-.286 8.332-.517 15.265 2.677l2.711-12.692c-3.724-1.347-8.516-2.644-14.477-2.644-15.302 0-26.066 8.127-26.152 19.776-.098 8.614 7.689 13.416 13.544 16.285 6.036 2.932 8.06 4.813 8.03 7.433-.042 4.014-4.814 5.791-9.256 5.858-7.787.122-12.299-2.104-15.897-3.781l-2.809 13.116c3.622 1.658 10.297 3.101 17.207 3.175 16.267-.001 26.904-8.034 26.952-20.473m40.407 19.532h14.312l-12.504-59.828h-13.202c-2.976 0-5.483 1.725-6.594 4.386l-23.225 55.443h16.255l3.227-8.935h19.855zm-17.278-21.196 8.148-22.468 4.687 22.468zm-65.117-38.632-12.797 59.828h-15.478l12.798-59.828z" fill="#1a1f71"/></svg>